<svg xmlns="http://www.w3.org/2000/svg" viewBox="0 0 100 100">
  <!-- Dok prajam yam, samma märke som i sidhuvudet. Byter du där, byt här. -->
  <rect width="100" height="100" rx="18" fill="#06322D"/>
  <g transform="translate(50 50) scale(0.82) translate(-50 -50)"><g fill="none" stroke="#1B9A81" stroke-width="3.4" vector-effect="non-scaling-stroke"><path d="M50 4C41 17 32 26 32 36C32 47 40 55 50 55C60 55 68 47 68 36C68 26 59 17 50 4Z" transform="rotate(0 50 50) translate(0 0) translate(50 50) scale(1.0) translate(-50 -50)"/><path d="M50 4C41 17 32 26 32 36C32 47 40 55 50 55C60 55 68 47 68 36C68 26 59 17 50 4Z" transform="rotate(90 50 50) translate(0 0) translate(50 50) scale(1.0) translate(-50 -50)"/><path d="M50 4C41 17 32 26 32 36C32 47 40 55 50 55C60 55 68 47 68 36C68 26 59 17 50 4Z" transform="rotate(180 50 50) translate(0 0) translate(50 50) scale(1.0) translate(-50 -50)"/><path d="M50 4C41 17 32 26 32 36C32 47 40 55 50 55C60 55 68 47 68 36C68 26 59 17 50 4Z" transform="rotate(270 50 50) translate(0 0) translate(50 50) scale(1.0) translate(-50 -50)"/></g><g fill="none" stroke="#CB8D04" stroke-width="3.06" vector-effect="non-scaling-stroke"><path d="M50 4C41 17 32 26 32 36C32 47 40 55 50 55C60 55 68 47 68 36C68 26 59 17 50 4Z" transform="rotate(0 50 50) translate(0 0) translate(50 50) scale(0.6) translate(-50 -50)"/><path d="M50 4C41 17 32 26 32 36C32 47 40 55 50 55C60 55 68 47 68 36C68 26 59 17 50 4Z" transform="rotate(90 50 50) translate(0 0) translate(50 50) scale(0.6) translate(-50 -50)"/><path d="M50 4C41 17 32 26 32 36C32 47 40 55 50 55C60 55 68 47 68 36C68 26 59 17 50 4Z" transform="rotate(180 50 50) translate(0 0) translate(50 50) scale(0.6) translate(-50 -50)"/><path d="M50 4C41 17 32 26 32 36C32 47 40 55 50 55C60 55 68 47 68 36C68 26 59 17 50 4Z" transform="rotate(270 50 50) translate(0 0) translate(50 50) scale(0.6) translate(-50 -50)"/></g><g fill="#EDB9C3"><path d="M50 4C41 17 32 26 32 36C32 47 40 55 50 55C60 55 68 47 68 36C68 26 59 17 50 4Z" transform="rotate(45 50 50) translate(0 -13) translate(50 50) scale(0.36) translate(-50 -50)"/><path d="M50 4C41 17 32 26 32 36C32 47 40 55 50 55C60 55 68 47 68 36C68 26 59 17 50 4Z" transform="rotate(135 50 50) translate(0 -13) translate(50 50) scale(0.36) translate(-50 -50)"/><path d="M50 4C41 17 32 26 32 36C32 47 40 55 50 55C60 55 68 47 68 36C68 26 59 17 50 4Z" transform="rotate(225 50 50) translate(0 -13) translate(50 50) scale(0.36) translate(-50 -50)"/><path d="M50 4C41 17 32 26 32 36C32 47 40 55 50 55C60 55 68 47 68 36C68 26 59 17 50 4Z" transform="rotate(315 50 50) translate(0 -13) translate(50 50) scale(0.36) translate(-50 -50)"/></g><circle cx="50" cy="50" r="13.5" fill="none" stroke="#1B9A81" stroke-width="2.21"/><circle cx="50" cy="50" r="9.5" fill="none" stroke="#CB8D04" stroke-width="2.8899999999999997"/><circle cx="50" cy="50" r="5.4" fill="#CB8D04"/></g>
</svg>
